<svg id="Group_1142" data-name="Group 1142" xmlns="http://www.w3.org/2000/svg" width="101.043" height="101.043" viewBox="0 0 101.043 101.043">
  <g id="Path_73" data-name="Path 73" transform="translate(0 0)" fill="">
    <path d="M 50.521484375 96.04297637939453 C 44.37392044067383 96.04297637939453 38.41290283203125 94.840087890625 32.80401229858398 92.46772003173828 C 27.38393974304199 90.17523193359375 22.51515769958496 86.89226531982422 18.33293914794922 82.71004486083984 C 14.15070247650146 78.52780914306641 10.86773872375488 73.65904998779297 8.575247764587402 68.23897552490234 C 6.202884197235107 62.63006591796875 4.999993324279785 56.66904830932617 4.999993324279785 50.521484375 C 4.999993324279785 44.37392044067383 6.202884197235107 38.41290283203125 8.575247764587402 32.80401229858398 C 10.86773872375488 27.38393974304199 14.15070247650146 22.51515769958496 18.33293914794922 18.33293914794922 C 22.51515769958496 14.15070247650146 27.38393974304199 10.86773872375488 32.80401229858398 8.575247764587402 C 38.41290283203125 6.202884197235107 44.37392044067383 4.999993324279785 50.521484375 4.999993324279785 C 56.66904830932617 4.999993324279785 62.63006591796875 6.202884197235107 68.23897552490234 8.575247764587402 C 73.65904998779297 10.86773872375488 78.52780914306641 14.15070247650146 82.71004486083984 18.33293914794922 C 86.89226531982422 22.51515769958496 90.17523193359375 27.38393974304199 92.46772003173828 32.80401229858398 C 94.840087890625 38.41290283203125 96.04297637939453 44.37392044067383 96.04297637939453 50.521484375 C 96.04297637939453 56.66904830932617 94.840087890625 62.63006591796875 92.46772003173828 68.23897552490234 C 90.17523193359375 73.65904998779297 86.89226531982422 78.52780914306641 82.71004486083984 82.71004486083984 C 78.52780914306641 86.89226531982422 73.65904998779297 90.17523193359375 68.23897552490234 92.46772003173828 C 62.63006591796875 94.840087890625 56.66904830932617 96.04297637939453 50.521484375 96.04297637939453 Z" stroke="none"/>
    <path d="M 50.521484375 10.00000762939453 C 28.17787170410156 10.00000762939453 10.00000762939453 28.17787170410156 10.00000762939453 50.521484375 C 10.00000762939453 72.86509704589844 28.17787170410156 91.04296112060547 50.521484375 91.04296112060547 C 72.86509704589844 91.04296112060547 91.04296112060547 72.86509704589844 91.04296112060547 50.521484375 C 91.04296112060547 28.17787170410156 72.86509704589844 10.00000762939453 50.521484375 10.00000762939453 M 50.521484375 7.62939453125e-06 C 78.42373657226562 7.62939453125e-06 101.0429611206055 22.61923217773438 101.0429611206055 50.521484375 C 101.0429611206055 78.42373657226562 78.42373657226562 101.0429611206055 50.521484375 101.0429611206055 C 22.61923217773438 101.0429611206055 7.62939453125e-06 78.42373657226562 7.62939453125e-06 50.521484375 C 7.62939453125e-06 22.61923217773438 22.61923217773438 7.62939453125e-06 50.521484375 7.62939453125e-06 Z" stroke="none" fill="#fff"/>
  </g>
  <g id="Group_5" data-name="Group 5" transform="translate(68.552 31.093) rotate(90)">
    <path id="Path_62" data-name="Path 62" d="M809,576.5h32.682" transform="translate(-809 -556.902)" fill="none" stroke="#fff" stroke-linecap="round" stroke-width="10"/>
    <path id="Path_63" data-name="Path 63" d="M824.2,567.905l18.758,18.758L824.2,605.422" transform="translate(-802.806 -567.905)" fill="none" stroke="#fff" stroke-linecap="round" stroke-width="10"/>
  </g>
</svg>
